<svg xmlns="http://www.w3.org/2000/svg" width="16.487" height="16.761" viewBox="0 0 16.487 16.761">
  <path id="Instagram" d="M1176.1,286.176h-10.687a2.928,2.928,0,0,0-2.9,2.949v10.864a2.928,2.928,0,0,0,2.9,2.949H1176.1a2.928,2.928,0,0,0,2.9-2.949V289.124A2.928,2.928,0,0,0,1176.1,286.176Zm-1.813,1.723a.5.5,0,0,1,.5-.506h1.9a.5.5,0,0,1,.5.506v1.931a.5.5,0,0,1-.5.507h-1.9a.5.5,0,0,1-.5-.507V287.9Zm-.535,6.506a2.973,2.973,0,1,1-2.973-3.023A3,3,0,0,1,1173.752,294.4Zm3.456,5.584a1.118,1.118,0,0,1-1.108,1.127h-10.687a1.119,1.119,0,0,1-1.108-1.127v-7.755h2.216a4.881,4.881,0,0,0-.507,2.171,4.765,4.765,0,1,0,9.53,0,4.871,4.871,0,0,0-1.091-3.081h2.755Z" transform="translate(-1162.514 -286.176)"/>
</svg>
