<svg xmlns="http://www.w3.org/2000/svg" width="85" height="12" viewBox="0 0 85 12">
  <g id="Vector_Smart_Object" data-name="Vector Smart Object" transform="translate(-96.311 -665.238)">
    <path id="Trazado_13" data-name="Trazado 13" d="M102.755,665.238a6.015,6.015,0,1,0,6.444,6,6.233,6.233,0,0,0-6.444-6m2.859,8.444-1.319.912-1.616-2.1-1.528,2.095-1.333-.911,1.617-1.992L98.91,670.9l.526-1.429,2.471.9v-2.487h1.708v2.486l2.477-.9.506,1.428-2.588.793Z" fill="#d11242"/>
    <path id="Trazado_14" data-name="Trazado 14" d="M111.3,666.777h4.922a3.692,3.692,0,0,1,2.618.805,1.882,1.882,0,0,1,.62,1.441v.027a2.079,2.079,0,0,1-1.482,1.991c1.164.358,1.907.97,1.907,2.184v.025c0,1.532-1.344,2.464-3.633,2.464H111.3Zm4.264,3.561c.809,0,1.262-.253,1.262-.777v-.026c0-.484-.412-.765-1.208-.765h-1.728v1.569Zm.385,3.385c.807,0,1.274-.293,1.274-.818v-.025c0-.485-.413-.8-1.3-.8h-2.031v1.647Z" fill="#465560"/>
    <path id="Trazado_15" data-name="Trazado 15" d="M136,666.778h2.48l3.949,4.723v-4.723h2.634v8.937h-2.331l-4.1-4.9v4.9H136Z" fill="#465560"/>
    <path id="Trazado_16" data-name="Trazado 16" d="M129.163,675.7h-2.876l6.733-8.934h2.346V675.7H132.99v-1.326h-2.864Zm3.827-3.175v-2.1l-1.524,2.1Z" fill="#465560"/>
    <path id="Trazado_17" data-name="Trazado 17" d="M166.484,666.761h2.373v5.668l4.262-5.668h2.849l-6.707,8.939h-2.777Z" fill="#d11242"/>
    <path id="Trazado_18" data-name="Trazado 18" d="M145.7,666.778h3.7c3.427,0,5.417,1.838,5.417,4.417v.026c0,2.579-2.015,4.494-5.473,4.494H145.7Zm3.747,6.74c1.588,0,2.645-.816,2.645-2.259v-.025c0-1.43-1.057-2.261-2.645-2.261h-1.088v4.545Z" fill="#465560"/>
    <path id="Trazado_19" data-name="Trazado 19" d="M155.233,666.778h2.659v6.766h4.65v2.17h-7.308Z" fill="#d11242"/>
    <rect id="Rectángulo_1" data-name="Rectángulo 1" width="2.674" height="8.937" transform="translate(163.174 666.778)" fill="#d11242"/>
    <path id="Trazado_20" data-name="Trazado 20" d="M122.9,673.008h1.162l1.692,2.363,1.549-2.062-.523-.709a2.84,2.84,0,0,0,1.975-2.746v-.026a2.671,2.671,0,0,0-.85-2.081,4.4,4.4,0,0,0-3.128-.969h-4.54v8.936H122.9Zm0-4.086h1.741c.892,0,1.441.357,1.441,1.06v.026c0,.651-.524,1.059-1.426,1.059H122.9Z" fill="#465560"/>
    <path id="Trazado_21" data-name="Trazado 21" d="M176.157,672.19h4.609v-1.953h-4.609v-1.354h5.089v-2.107h-4.515l-3.209,4.275v4.662h7.789v-2.106h-5.154Z" fill="#d11242"/>
  </g>
</svg>
