<svg xmlns="http://www.w3.org/2000/svg" width="57" height="20.001" viewBox="0 0 57 20.001">
  <g id="Vector_Smart_Object_copia" data-name="Vector Smart Object copia" transform="translate(-41 -294.999)">
    <g id="Vector_Smart_Object_copia-2" data-name="Vector Smart Object copia" transform="translate(-240.543 122.527)">
      <g id="Grupo_3" data-name="Grupo 3">
        <g id="Grupo_1" data-name="Grupo 1">
          <path id="Trazado_1" data-name="Trazado 1" d="M329.213,177.068a2.27,2.27,0,0,0,0-4.54,2.27,2.27,0,0,0,0,4.54Z" fill="#fff"/>
          <path id="Trazado_2" data-name="Trazado 2" d="M294.362,174.348a9.125,9.125,0,0,0-6.107-1.875c-4.14,0-6.712.782-6.712,2.042v16.527c0,.809.9,1.352,2.232,1.352,1.354,0,2.265-.543,2.265-1.352v-4.648a16.107,16.107,0,0,0,3.208.355A7.28,7.28,0,0,0,294.9,184.6a7.054,7.054,0,0,0,1.69-4.844A6.774,6.774,0,0,0,294.362,174.348Zm-5.745,8.671a12.052,12.052,0,0,1-2.577-.34v-5.664a5.582,5.582,0,0,0-1.381-.036,16.235,16.235,0,0,1,2.143-.457l0,0a9.979,9.979,0,0,1,1.511-.116,4.084,4.084,0,0,1,2.808.845,3.187,3.187,0,0,1,.91,2.476C292.035,181.943,290.916,183.019,288.617,183.019Z" fill="#fff"/>
          <path id="Trazado_3" data-name="Trazado 3" d="M313.079,188.275v0a7.227,7.227,0,0,0-1.241.531s.095-.079.274-.2c.321-.257.672-.5.968-.7v-.682l0,0v-8.495c0-.815-.9-1.363-2.247-1.363s-2.25.548-2.25,1.363v7.95a4.535,4.535,0,0,1-3.3,1.734c-1.595,0-2.307-.815-2.307-2.643v-7.041c0-.815-.9-1.363-2.232-1.363s-2.234.548-2.234,1.363v8.249c0,3.331,2.041,5.4,5.33,5.4a8.023,8.023,0,0,0,5-1.656,2.568,2.568,0,0,0,2.573,1.726,4.719,4.719,0,0,0,2-.473,2.541,2.541,0,0,0,1.151-2.745A1.171,1.171,0,0,0,313.079,188.275Z" fill="#fff"/>
          <path id="Trazado_4" data-name="Trazado 4" d="M332.949,189.228a1.171,1.171,0,0,0-1.493-.953v0a7.213,7.213,0,0,0-1.241.531s.1-.081.282-.207c-.155.072-.244.125-.244.125a13.327,13.327,0,0,1,1.2-.876v-7.494c0-.733-.567-1.518-2.165-1.518h-7.618v-.482c0-1.879.559-1.879.77-1.879a2.988,2.988,0,0,1,1.1.3h0l.023.011h0a3.312,3.312,0,0,0,.646.231l.046.013.12.022.069.014.111.013.078.009.105.005h.08l.1,0c.026,0,.053,0,.079-.007s.065-.008.1-.013l.078-.014a.881.881,0,0,0,.09-.024.6.6,0,0,0,.073-.023c.028-.011.058-.021.084-.035s.046-.022.067-.034a.629.629,0,0,0,.078-.046.462.462,0,0,0,.061-.045.614.614,0,0,0,.069-.057.509.509,0,0,0,.051-.056.634.634,0,0,0,.061-.07c.016-.02.029-.045.044-.067s.035-.055.05-.086.021-.052.033-.078a1.493,1.493,0,0,0,.065-.217c.006-.029.016-.056.02-.087v0s0,0,0-.007a2.631,2.631,0,0,0,.016-.622.181.181,0,0,0,0-.034,2.871,2.871,0,0,0-.06-.364.006.006,0,0,0,0,0,2.537,2.537,0,0,0-.115-.361c0-.008-.005-.013-.007-.02a3.483,3.483,0,0,0-2.6-1.978h0l-.02-.005h0a6,6,0,0,0-1.607-.23c-1.34,0-4.457.561-4.457,5.764v.564H316.07c-.847,0-1.438.822-1.438,2s.591,2,1.438,2h1.105v8.234c0,.843.9,1.409,2.249,1.409s2.249-.566,2.249-1.409V182.83h5.287v6.317c0,2.066,1.059,3.3,2.835,3.3a4.72,4.72,0,0,0,2-.473A2.541,2.541,0,0,0,332.949,189.228Z" fill="#fff"/>
        </g>
        <g id="Grupo_2" data-name="Grupo 2">
          <path id="Trazado_5" data-name="Trazado 5" d="M335.175,174.243a1.684,1.684,0,1,1,1.682,1.651A1.667,1.667,0,0,1,335.175,174.243Zm3.1,0a1.421,1.421,0,1,0-1.422,1.4A1.411,1.411,0,0,0,338.279,174.24Z" fill="#fff" fill-rule="evenodd"/>
          <path id="Trazado_6" data-name="Trazado 6" d="M336.111,173.219c.381.011.754.009,1.127.039a.451.451,0,0,1,.426.45.489.489,0,0,1-.356.538l-.123.036a2.884,2.884,0,0,1,.639.821c-.164,0-.307,0-.451,0-.019,0-.042-.036-.059-.06-.129-.184-.259-.368-.384-.554a.4.4,0,0,0-.388-.164c-.055,0-.051.037-.051.072v.7h-.38Zm.384.792c.194,0,.381.006.565,0a.21.21,0,0,0,.208-.227.214.214,0,0,0-.214-.223c-.138-.008-.278-.005-.418-.007h-.141Z" fill="#fff" fill-rule="evenodd"/>
        </g>
      </g>
    </g>
    <path id="Color_Overlay" data-name="Color Overlay" d="M76.631,313.591v-8.234h-1.1c-.848,0-1.438-.821-1.438-2s.59-2,1.438-2h1.1V300.8c0-5.2,3.118-5.764,4.459-5.764a6.021,6.021,0,0,1,1.607.229h0l.02.005a3.483,3.483,0,0,1,2.6,1.978c0,.006.005.013.007.02a2.66,2.66,0,0,1,.115.361.01.01,0,0,1,0,0,2.685,2.685,0,0,1,.06.364.146.146,0,0,1,0,.034,2.644,2.644,0,0,1-.016.622s0,0,0,.007l0,0c0,.031-.013.058-.019.086a1.669,1.669,0,0,1-.065.217c-.013.025-.022.053-.033.077s-.034.057-.05.086-.028.047-.044.067a.57.57,0,0,1-.061.07.517.517,0,0,1-.051.057.6.6,0,0,1-.069.057.41.41,0,0,1-.061.045.563.563,0,0,1-.078.047l-.067.033c-.027.013-.057.024-.085.035s-.048.016-.073.022-.059.017-.09.023-.051.011-.078.014-.063.01-.1.013-.053,0-.079.007l-.1,0H84.2l-.105-.005c-.026,0-.051-.005-.077-.009l-.111-.013-.069-.013c-.04-.007-.079-.014-.12-.023l-.046-.013a3.319,3.319,0,0,1-.645-.231h0L83,299.3a2.986,2.986,0,0,0-1.1-.3c-.212,0-.77,0-.77,1.88v.482h7.618c1.6,0,2.165.785,2.165,1.518v7.493a13.5,13.5,0,0,0-1.2.876s.089-.052.244-.124c-.184.126-.283.206-.283.206a7.262,7.262,0,0,1,1.241-.53v0a1.17,1.17,0,0,1,1.493.952,2.541,2.541,0,0,1-1.151,2.745,4.723,4.723,0,0,1-2,.473c-1.777,0-2.835-1.233-2.835-3.3v-6.317H81.131v8.234c0,.843-.905,1.409-2.249,1.409S76.631,314.434,76.631,313.591Zm-8.329-.344a8.027,8.027,0,0,1-5,1.655c-3.289,0-5.33-2.069-5.33-5.4v-8.249c0-.815.9-1.364,2.233-1.364s2.233.548,2.233,1.364v7.041c0,1.828.712,2.643,2.307,2.643a4.537,4.537,0,0,0,3.3-1.734v-7.95c0-.815.9-1.364,2.248-1.364s2.248.548,2.248,1.364v8.494l0,0v.682c-.3.2-.646.441-.968.7-.178.122-.273.2-.273.2a7.262,7.262,0,0,1,1.241-.53v0a1.17,1.17,0,0,1,1.492.952,2.54,2.54,0,0,1-1.151,2.745,4.723,4.723,0,0,1-2,.473A2.567,2.567,0,0,1,68.3,313.247Zm-27.3.321V297.041c0-1.259,2.572-2.042,6.712-2.042a9.123,9.123,0,0,1,6.106,1.876,6.774,6.774,0,0,1,2.229,5.41,7.057,7.057,0,0,1-1.69,4.844,7.281,7.281,0,0,1-5.654,2.147,16.166,16.166,0,0,1-3.208-.355v4.648c0,.809-.911,1.352-2.264,1.352C41.9,314.92,41,314.377,41,313.568Zm4.5-14.027v5.665a12.074,12.074,0,0,0,2.577.339c2.3,0,3.418-1.076,3.418-3.289a3.19,3.19,0,0,0-.91-2.477,4.088,4.088,0,0,0-2.809-.844,9.933,9.933,0,0,0-1.511.116l0,0a16.223,16.223,0,0,0-2.143.457,4.794,4.794,0,0,1,.534-.026A5.647,5.647,0,0,1,45.5,299.542ZM86.429,297.3a2.145,2.145,0,0,1,2.242-2.245,2.27,2.27,0,1,1-2.242,2.245Zm8.2-.531a1.684,1.684,0,1,1,1.683,1.651A1.669,1.669,0,0,1,94.631,296.77Zm.264,0a1.421,1.421,0,1,0,1.422-1.4h0A1.414,1.414,0,0,0,94.9,296.772Zm1.934.855c-.019,0-.041-.036-.058-.059-.129-.185-.258-.369-.384-.554A.4.4,0,0,0,96,296.85c-.055,0-.05.037-.05.072v.7h-.38v-1.879c.381.012.754.009,1.127.039a.449.449,0,0,1,.425.45.489.489,0,0,1-.355.538l-.122.036a2.906,2.906,0,0,1,.639.821h-.248C96.963,297.631,96.9,297.63,96.829,297.627Zm-.877-1.089c.194,0,.381.006.565,0a.209.209,0,0,0,.208-.227.213.213,0,0,0-.214-.223c-.139-.008-.278-.005-.418-.007h-.141Z"/>
  </g>
</svg>
