<svg xmlns="http://www.w3.org/2000/svg" width="98" height="35" viewBox="0 0 98 35">
  <g id="LOGO_copy" data-name="LOGO copy" transform="translate(-484.057 -301.827)">
    <g id="Grupo_9" data-name="Grupo 9">
      <g id="Grupo_7" data-name="Grupo 7">
        <path id="Trazado_22" data-name="Trazado 22" d="M566.016,309.87a3.974,3.974,0,0,0,0-7.944,3.974,3.974,0,0,0,0,7.944Z" fill="#fff"/>
        <path id="Trazado_23" data-name="Trazado 23" d="M506.1,305.109c-2.492-2.178-6.024-3.282-10.5-3.282-7.118,0-11.54,1.369-11.54,3.573v28.921c0,1.416,1.541,2.367,3.837,2.367,2.328,0,3.893-.951,3.893-2.367v-8.133a27.229,27.229,0,0,0,5.515.62c4.227,0,7.5-1.265,9.72-3.756a12.481,12.481,0,0,0,2.906-8.477C509.928,310.519,508.64,307.333,506.1,305.109Zm-9.878,15.174a20.381,20.381,0,0,1-4.431-.595v-9.913a9.432,9.432,0,0,0-2.375-.063,27.485,27.485,0,0,1,3.685-.8l.006,0a16.865,16.865,0,0,1,2.6-.2,6.939,6.939,0,0,1,4.828,1.478,5.632,5.632,0,0,1,1.565,4.333C502.094,318.4,500.172,320.283,496.218,320.283Z" fill="#fff"/>
        <path id="Trazado_24" data-name="Trazado 24" d="M538.275,329.481v0a12.316,12.316,0,0,0-2.134.929s.163-.138.47-.352c.552-.449,1.155-.877,1.664-1.22v-1.194l0,0V312.771c0-1.426-1.553-2.386-3.863-2.386s-3.868.96-3.868,2.386v13.912c-1.808,2.015-3.715,3.035-5.669,3.035-2.742,0-3.966-1.427-3.966-4.625V312.771c0-1.426-1.542-2.386-3.838-2.386s-3.84.96-3.84,2.386v14.436c0,5.829,3.51,9.449,9.163,9.449a13.635,13.635,0,0,0,8.6-2.9,4.416,4.416,0,0,0,4.425,3.02,8,8,0,0,0,3.441-.827,4.48,4.48,0,0,0,1.98-4.8A2.013,2.013,0,0,0,538.275,329.481Z" fill="#fff"/>
        <path id="Trazado_25" data-name="Trazado 25" d="M572.439,331.148a2.013,2.013,0,0,0-2.567-1.667v0a12.29,12.29,0,0,0-2.133.929s.169-.141.485-.362c-.266.126-.42.218-.42.218a22.942,22.942,0,0,1,2.068-1.532V315.617c0-1.284-.974-2.656-3.722-2.656h-13.1v-.843c0-3.289.961-3.289,1.324-3.289a5.067,5.067,0,0,1,1.9.529h0l.039.019.006,0a5.631,5.631,0,0,0,1.11.4c.027.007.052.016.079.023.07.014.136.026.206.038.04.009.078.017.119.024l.19.023c.045,0,.088.012.134.016s.121.007.181.009l.137,0c.058,0,.115,0,.174-.005s.092-.006.135-.012.111-.013.165-.023.089-.016.134-.025a1.5,1.5,0,0,0,.154-.042,1.023,1.023,0,0,0,.126-.039c.048-.019.1-.038.145-.061s.078-.038.115-.059a1.076,1.076,0,0,0,.135-.081.791.791,0,0,0,.1-.079,1.064,1.064,0,0,0,.119-.1.881.881,0,0,0,.088-.1,1.1,1.1,0,0,0,.105-.123c.028-.035.049-.078.075-.117s.06-.1.086-.15.036-.091.056-.136a2.652,2.652,0,0,0,.111-.379c.01-.051.027-.1.034-.152l0,0c0-.005,0-.008,0-.012a4.689,4.689,0,0,0,.027-1.088.317.317,0,0,0,0-.06,5.1,5.1,0,0,0-.1-.637.011.011,0,0,0,0-.008,4.508,4.508,0,0,0-.2-.632c0-.013-.009-.023-.013-.036a6.009,6.009,0,0,0-4.464-3.461h0l-.034-.009h0a10.146,10.146,0,0,0-2.763-.4c-2.3,0-7.663.982-7.663,10.087v.988h-1.9c-1.457,0-2.472,1.438-2.472,3.5s1.016,3.5,2.472,3.5h1.9v14.41c0,1.475,1.553,2.465,3.867,2.465s3.866-.99,3.866-2.465v-14.41h9.091v11.055c0,3.615,1.82,5.772,4.874,5.772a8,8,0,0,0,3.442-.827A4.481,4.481,0,0,0,572.439,331.148Z" fill="#fff"/>
      </g>
      <g id="Grupo_8" data-name="Grupo 8">
        <path id="Trazado_26" data-name="Trazado 26" d="M576.266,304.925a2.9,2.9,0,1,1,2.892,2.889A2.892,2.892,0,0,1,576.266,304.925Zm5.336-.005a2.442,2.442,0,1,0-2.444,2.441A2.447,2.447,0,0,0,581.6,304.92Z" fill="#fff" fill-rule="evenodd"/>
        <path id="Trazado_27" data-name="Trazado 27" d="M577.875,303.134c.655.02,1.3.016,1.937.068a.783.783,0,0,1,.732.788.856.856,0,0,1-.611.941c-.063.021-.123.036-.211.063a5.035,5.035,0,0,1,1.1,1.437c-.283,0-.529.006-.776-.005-.033,0-.072-.063-.1-.1-.221-.322-.445-.645-.661-.97a.68.68,0,0,0-.667-.286c-.094,0-.087.065-.087.126v1.233h-.653Zm.66,1.386c.334,0,.655.011.972-.006a.364.364,0,0,0,.357-.4.371.371,0,0,0-.368-.391c-.237-.014-.478-.009-.719-.012h-.242Z" fill="#fff" fill-rule="evenodd"/>
      </g>
    </g>
  </g>
</svg>
