<svg xmlns="http://www.w3.org/2000/svg" width="28.999" height="23.995" viewBox="0 0 28.999 23.995">
  <g id="Grupo_10" data-name="Grupo 10" transform="translate(-685 -43.002)">
    <path id="Op_component_1" data-name="Op component 1" d="M712.952,45.04h-26.9a1.019,1.019,0,1,1,0-2.038h26.9a1.019,1.019,0,1,1,0,2.038Z" fill="#fff"/>
    <path id="Op_component_2" data-name="Op component 2" d="M709.585,67H689.167a1.934,1.934,0,0,1-1.958-1.905c0-.018,0-.036,0-.054l.927-17.139a1.048,1.048,0,0,1,2.092.107l-.917,16.952h20.129l-.9-20.026a1.048,1.048,0,0,1,2.093-.089l.911,20.2c0,.015,0,.03,0,.045A1.934,1.934,0,0,1,709.585,67Z" fill="#fff"/>
    <path id="Op_component_3" data-name="Op component 3" d="M699.376,50.67a5.225,5.225,0,0,1-5.289-5.146,1.048,1.048,0,0,1,2.095,0,3.156,3.156,0,0,0,3.195,3.108,3.216,3.216,0,0,0,2.793-1.6,3.042,3.042,0,0,0,.4-1.51,1.048,1.048,0,0,1,2.095,0,5.042,5.042,0,0,1-.666,2.5A5.323,5.323,0,0,1,699.376,50.67Z" fill="#fff"/>
  </g>
</svg>
