<svg xmlns="http://www.w3.org/2000/svg" width="27.981" height="25.013" viewBox="0 0 27.981 25.013">
  <path id="umbrella" d="M574.133,66.651c-6.486-7.62-4.213-14.332-2.279-17.652a1.058,1.058,0,0,1,1.437-.382,1.036,1.036,0,0,1,.385,1.423c-1.829,3.147-3.055,7.916.684,13.459.053-.128.112-.256.175-.389a8.26,8.26,0,0,1,5.183-4.027,10.45,10.45,0,0,1,7.363-7.3,8.221,8.221,0,0,1,4.067-5.126c.134-.064.263-.121.392-.174a12.488,12.488,0,0,0-15.772.857,1.057,1.057,0,0,1-1.437-.047l-2.67-2.643a1.04,1.04,0,0,1,0-1.476,1.065,1.065,0,0,1,1.49,0l2,1.979a15.828,15.828,0,0,1,6.3-2.882,13.749,13.749,0,0,1,6.153.162,18.218,18.218,0,0,1,7.129,3.825,1.037,1.037,0,0,1-.778,1.834c-.221-.017-3.617-.157-5.019,4.843a1.049,1.049,0,0,1-.835.746,8.743,8.743,0,0,0-4.172,2.238,8.956,8.956,0,0,0-2.3,4.172,1.032,1.032,0,0,1-.753.815c-5.184,1.424-4.9,4.929-4.891,4.964a1.035,1.035,0,0,1-.637,1.058,1.113,1.113,0,0,1-.409.081A1.064,1.064,0,0,1,574.133,66.651Zm17.18-1.939-6.2-6.138a1.04,1.04,0,0,1,0-1.476,1.066,1.066,0,0,1,1.49,0l6.2,6.139a1.718,1.718,0,0,0,2.407,0,1.677,1.677,0,0,0,0-2.383L594,59.657a1.04,1.04,0,0,1,0-1.476,1.065,1.065,0,0,1,1.49,0l1.21,1.2a3.745,3.745,0,0,1,0,5.334,3.835,3.835,0,0,1-5.387,0Z" transform="translate(-569.835 -42.003)" fill="#fff"/>
</svg>
