<svg xmlns="http://www.w3.org/2000/svg" width="32.999" height="23.003" viewBox="0 0 32.999 23.003">
  <path id="Shape_7" data-name="Shape 7" d="M456.172,64.292A9.852,9.852,0,0,1,453,56.931a10.757,10.757,0,0,1,2.818-7.49.974.974,0,0,1,.14-.111,7.672,7.672,0,0,1,4.063-.964,14.758,14.758,0,0,1,6.222,1.537c5.383-.874,11.173-5.613,11.233-5.662a1.065,1.065,0,0,1,.681-.244A8.168,8.168,0,0,1,486,52.418c.015,4.847-5.111,9.841-13.378,13.036A22.647,22.647,0,0,1,464.555,67C461.033,67,458.056,66.039,456.172,64.292ZM457.2,50.966a9.008,9.008,0,0,0-2.1,5.959,7.913,7.913,0,0,0,2.529,5.913c1.491,1.383,3.953,2.145,6.93,2.145a20.45,20.45,0,0,0,7.286-1.4c7.34-2.838,12.075-7.217,12.063-11.157a6.164,6.164,0,0,0-5.385-6.394,34.106,34.106,0,0,1-9.194,5.167A7.046,7.046,0,0,0,477,49.261a1.076,1.076,0,0,1,1.48-.067.983.983,0,0,1,.069,1.426,8.993,8.993,0,0,1-6.673,2.976,13.657,13.657,0,0,1-6.287-1.753,12.852,12.852,0,0,0-5.565-1.457A6.2,6.2,0,0,0,457.2,50.966Z" transform="translate(-453.001 -43.998)" fill="#fff"/>
</svg>
