<svg xmlns="http://www.w3.org/2000/svg" width="24.004" height="27.995" viewBox="0 0 24.004 27.995">
  <g id="Grupo_11" data-name="Grupo 11" transform="translate(-794.998 -41.002)">
    <path id="Op_component_1" data-name="Op component 1" d="M806.886,69a9.265,9.265,0,0,1-5.121-1.59c-1.945-1.228-6.121-4.031-6.3-4.149a1.053,1.053,0,0,1-.47-.874V48.034c0-3.391,1.281-5.151,4.153-5.707,3.077-.6,7.094-1.218,7.135-1.225a1.451,1.451,0,0,0,.613-.087c3.673-.312,7.009,5.045,7.609,6.064a14.7,14.7,0,0,1,4.1,8.2c1.1,5.1-.24,9.813-2.184,11.022a27.257,27.257,0,0,1-6.93,2.358A10.824,10.824,0,0,1,806.886,69Zm-9.727-7.172c1.172.784,4.236,2.829,5.776,3.8a7.147,7.147,0,0,0,6.027.982,26.537,26.537,0,0,0,6.3-2.093c.935-.582,2.216-4.212,1.227-8.793a12.563,12.563,0,0,0-3.666-7.309,1.069,1.069,0,0,1-.14-.19c-1.183-2.054-3.753-5.253-5.6-5.1a1.129,1.129,0,0,1-.209,0,1.1,1.1,0,0,1-.254.071c-.04.006-4.018.623-7.053,1.21-1.6.309-2.411.955-2.411,3.628Z" fill="#fff"/>
    <path id="Op_component_2" data-name="Op component 2" d="M803.355,63.775a1.085,1.085,0,0,1-.912-.49,1.047,1.047,0,0,1,.33-1.463,2.3,2.3,0,0,0,.882-1.5,6.778,6.778,0,0,0-1.033-4.8c-.745-1.069-1.731-1.588-2.4-1.261a1.09,1.09,0,0,1-1.45-.474,1.05,1.05,0,0,1,.483-1.422c1.686-.826,3.754-.038,5.148,1.961a8.8,8.8,0,0,1,1.366,6.418,4.272,4.272,0,0,1-1.837,2.866A1.093,1.093,0,0,1,803.355,63.775Z" fill="#fff"/>
    <path id="Op_component_3" data-name="Op component 3" d="M805.526,48.037a5.382,5.382,0,0,1-2.994-.988c-1.212-.812-2.841-2.556-2.49-3.72a1.084,1.084,0,0,1,1.343-.716,1.063,1.063,0,0,1,.775,1.009,5.1,5.1,0,0,0,2.607,2.176,2.343,2.343,0,0,0,2.242-.417,1.1,1.1,0,0,1,1.516.189,1.045,1.045,0,0,1-.193,1.486A4.591,4.591,0,0,1,805.526,48.037Z" fill="#fff"/>
  </g>
</svg>
