<svg xmlns="http://www.w3.org/2000/svg" width="17.506" height="15.668" viewBox="0 0 17.506 15.668">
  <path id="Twitter" d="M1148.285,289.281a5.928,5.928,0,0,1-2,.626,4.2,4.2,0,0,0,1.505-2.161,5.515,5.515,0,0,1-2.253.879v0a3.455,3.455,0,0,0-2.611-1.231,3.809,3.809,0,0,0-3.611,3.979,4.315,4.315,0,0,0,.093.886h0a10.091,10.091,0,0,1-7.65-4.127,4.226,4.226,0,0,0,1.1,5.255,2.158,2.158,0,0,1-1.577-.448,3.8,3.8,0,0,0,2.785,3.886,2.577,2.577,0,0,1-1.5.127,3.5,3.5,0,0,0,3.228,2.7,5.593,5.593,0,0,1-5,1.651,10.111,10.111,0,0,0,5.649,1.759c5.826,0,10.351-5.2,10.108-11.617,0-.008,0-.016,0-.021s0-.036,0-.051,0-.039,0-.06A6.61,6.61,0,0,0,1148.285,289.281Z" transform="translate(-1130.78 -287.397)"/>
</svg>
